<?xml version="1.0" encoding="UTF-8" standalone="no"?>
<svg
   xmlns:dc="http://purl.org/dc/elements/1.1/"
   xmlns:cc="http://creativecommons.org/ns#"
   xmlns:rdf="http://www.w3.org/1999/02/22-rdf-syntax-ns#"
   xmlns:svg="http://www.w3.org/2000/svg"
   xmlns="http://www.w3.org/2000/svg"
   viewBox="0 0 6140.8364 6140.4189"
   height="6140.4189"
   width="6140.8364"
   xml:space="preserve"
   id="svg2"
   version="1.1"><metadata
     id="metadata8"><rdf:RDF><cc:Work
         rdf:about=""><dc:format>image/svg+xml</dc:format><dc:type
           rdf:resource="http://purl.org/dc/dcmitype/StillImage" /></cc:Work></rdf:RDF></metadata><defs
     id="defs6" /><g
     transform="matrix(1.3333333,0,0,-1.3333333,-0.77892428,6141.196)"
     id="g10"><g
       transform="scale(0.1)"
       id="g12"><g
         transform="scale(2.35471)"
         id="g14"><path
           id="path16"
           style="fill:#f2f2f2;fill-opacity:1;fill-rule:nonzero;stroke:none"
           d="M 3402.59,16300 H 15257.6 l 19.6,-19.6 V 2234.37 l -19.6,-19.55 -11855.01,-0.04 -19.56,19.56 V 16280.4 l 19.56,19.6 m 0,-39.1 19.56,19.5 V 2234.34 l -19.56,19.56 11855.01,0.03 -19.5,-19.56 V 16280.4 l 19.5,-19.6 z" /></g><g
         transform="scale(2.82638)"
         id="g18"><path
           id="path20"
           style="fill:#c40005;fill-opacity:1;fill-rule:nonzero;stroke:none"
           d="m 10908.9,16296.1 c -781.9,0 -1699.71,-0.7 -2778.42,-1.4 -3840.36,-4.6 -7079.21,-23.1 -7190.259,-46.2 C 565.43,16174.4 287.817,15915.3 74.9758,15438.8 0.955009,15272.2 -3.6763,14795.6 5.56835,8271.62 14.8282,4431.26 37.964,1187.77 56.4713,1072.1 158.259,526.119 477.518,202.23 1051.27,63.4273 1213.21,22.934 4837.72,2.06205 8378.19,2.06205 c 3338.41,0 6602.01,18.56535 6817.61,56.73805 388.7,69.4059 620,203.5929 809.7,476.5769 310.1,458.059 291.5,-32.394 291.5,7713.103 0,5205.32 -13.8,7060.72 -55.5,7176.42 -69.4,208.2 -351.6,564.5 -522.8,666.2 -308.3,181.8 -231.7,205 -4809.8,205 z" /></g><g
         transform="scale(2.38017)"
         id="g22"><path
           id="path24"
           style="fill:#f8c617;fill-opacity:1;fill-rule:nonzero;stroke:none"
           d="m 12590.5,14727.4 c 1128.7,3.2 2057.7,-4752.97 2074.4,-10623.17 l 1635.1,4.68 c -18,6321.79 -1680,11441.79 -3711.9,11435.99 -1156,-3.3 -2182.8,-1546.4 -2850.37,-3956.8 -681.2,2406.6 -1717.19,3943.8 -2873.09,3940.5 -2031.8,-5.8 -3664.91,-5135.2 -3646.85,-11457.01 l 1635.57,4.68 C 4836.6,9946.43 5738.37,14707.8 6866.98,14711 c 1128.91,3.3 2056.81,-4386.9 2072.26,-9805.53 l 1634.96,4.64 c -15.5,5418.59 887.3,9814.09 2016.3,9817.29 z" /></g></g></g></svg>